<svg xmlns="http://www.w3.org/2000/svg" xmlns:xlink="http://www.w3.org/1999/xlink" id="Layer_1" x="0" y="0" version="1.1" viewBox="0 0 60 60" style="enable-background:new 0 0 60 60" xml:space="preserve"><style type="text/css">.st0{fill:#fff}.st1{fill:none;stroke:#c3f0e9}.st2{fill:url(#Shape_2_)}</style><path d="M10,0.5h40c5.2,0,9.5,4.3,9.5,9.5v40c0,5.2-4.3,9.5-9.5,9.5H10c-5.2,0-9.5-4.3-9.5-9.5V10	C0.5,4.8,4.8,0.5,10,0.5z" class="st0"/><path d="M10,0.5h40c5.2,0,9.5,4.3,9.5,9.5v40c0,5.2-4.3,9.5-9.5,9.5H10c-5.2,0-9.5-4.3-9.5-9.5V10	C0.5,4.8,4.8,0.5,10,0.5z" class="st1"/><linearGradient id="Shape_2_" x1="30" x2="30" y1="51.23" y2="12.961" gradientTransform="matrix(1 0 0 -1 0 62)" gradientUnits="userSpaceOnUse"><stop offset="0" style="stop-color:#2cd2bf"/><stop offset=".157" style="stop-color:#2ccec0"/><stop offset=".298" style="stop-color:#2cc3c4"/><stop offset=".434" style="stop-color:#2db1c9"/><stop offset=".566" style="stop-color:#2d97d1"/><stop offset=".695" style="stop-color:#2e76dc"/><stop offset=".823" style="stop-color:#2f4de9"/><stop offset=".946" style="stop-color:#301df8"/><stop offset="1" style="stop-color:#3006ff"/></linearGradient><path id="Shape_1_" d="M30,10.9c-10.6,0-19.1,8.5-19.1,19.1S19.4,49.1,30,49.1S49.1,40.6,49.1,30S40.6,10.9,30,10.9z M44.7,27.9h-6.3c-0.2-4-0.9-7.7-1.9-10.7c-0.1-0.3-0.2-0.5-0.3-0.8C40.7,18.5,44,22.8,44.7,27.9z M15.3,32.1h6.3	c0.2,4,0.9,7.7,1.9,10.7c0.1,0.3,0.2,0.5,0.3,0.8C19.3,41.5,16,37.2,15.3,32.1z M23.5,17.2c-1,2.9-1.8,6.6-1.9,10.7h-6.3	c0.7-5.1,4.1-9.3,8.5-11.4C23.7,16.7,23.6,16.9,23.5,17.2z M32.5,41.3C31.4,44.2,30.3,45,30,45c-0.3,0-1.4-0.7-2.5-3.7	c-1-2.5-1.5-5.7-1.7-9.2h8.4C34.1,35.7,33.4,38.8,32.5,41.3z M25.7,27.9c0.2-3.4,0.7-6.7,1.7-9.2c1.1-2.9,2.2-3.7,2.5-3.7	s1.4,0.7,2.5,3.7c1,2.5,1.5,5.7,1.7,9.2H25.7z M36.2,43.5c0.1-0.3,0.2-0.5,0.3-0.8c1-2.9,1.8-6.6,1.9-10.7h6.3	C44,37.2,40.7,41.5,36.2,43.5z" class="st2"/></svg>