<svg xmlns="http://www.w3.org/2000/svg" xmlns:xlink="http://www.w3.org/1999/xlink" id="Layer_1" x="0" y="0" version="1.1" viewBox="0 0 60 60" style="enable-background:new 0 0 60 60" xml:space="preserve"><style type="text/css">.st0{fill:#fff}.st1{fill:none;stroke:#c3f0e9}.st2{fill:#21a3c1}.st3{fill:#77cad8}.st4{fill:#2b56e0}.st5{fill:#6c8fe5}.st6{fill:#b1efe3}.st7{fill:#66edd7}</style><path d="M10,0.5h40c5.2,0,9.5,4.3,9.5,9.5v40c0,5.2-4.3,9.5-9.5,9.5H10c-5.2,0-9.5-4.3-9.5-9.5V10	C0.5,4.8,4.8,0.5,10,0.5z" class="st0"/><path d="M10,0.5h40c5.2,0,9.5,4.3,9.5,9.5v40c0,5.2-4.3,9.5-9.5,9.5H10c-5.2,0-9.5-4.3-9.5-9.5V10	C0.5,4.8,4.8,0.5,10,0.5z" class="st1"/><path d="M29.9,37.2l11.6-6.9l-11.6-5.3" class="st2"/><path d="M29.9,11.1v14l-11.6,5.3l11.6,6.9" class="st3"/><polygon points="41.5 32.5 29.9 39.4 29.9 48.9" class="st4"/><polygon points="18.3 32.5 29.9 48.9 29.9 39.4" class="st5"/><polygon points="29.9 11.1 18.3 30.3 29.9 25.1" class="st6"/><polygon points="29.9 11.1 41.5 30.3 29.9 25.1" class="st7"/></svg>